<svg xmlns="http://www.w3.org/2000/svg" viewBox="0 0 25 25">
    <path
        style="fill:#2b2b40"
        d="M 19 3 H 14.82 C 14.4 1.84 13.3 1 12 1 C 10.7 1 9.6 1.84 9.18 3 H 5 C 3.9 3 3 3.9 3 5 V 19 C 3 20.1 3.9 21 5 21 H 19 C 20.1 21 21 20.1 21 19 V 5 C 21 3.9 20.1 3 19 3 Z M 12 5 C 11.45 5 11 4.55 11 4 C 11 3.45 11.45 3 12 3 C 12.55 3 13 3.45 13 4 C 13 4.55 12.55 5 12 5"
    />
    <path
        style="fill:#404060"
        d="M 11 20 L 5 20 C 4 20 4 20 4 19 L 4 5 C 4 4 4 4 5 4 H 11 Z M 13 20 L 19.0826 20.0242 C 20 20 20 20 20 19 L 20 13 L 13 13 Z M 20 11 L 20 5 C 20 4 20 4 19 4 L 13 4 L 13 11 Z"
    />
    <path
        style="fill:#2b2b40; fill-rule:evenodd;"
        d="M 14.9984 4.0134 A 2.9914 3.008 0 0 1 12 7 A 2.9914 3.008 0 0 1 9 4 A 2.9914 3.008 0 0 1 12 1 A 2.9914 3.008 0 0 1 15 4 M 12 3 A 1.0101 1.006 0 0 1 13 4 A 1.0101 1.006 0 0 1 12 5 A 1.0101 1.006 0 0 1 11 4 A 1.0101 1.006 0 0 1 12 3"
    />
</svg>
