<svg viewBox="0 0 24 24"><path d="M 20 8.69 V 4 H 15.31 L 12 0.69 L 8.69 4 H 4 V 8.69 L 0.69 12 L 4 15.31 V 20 H 8.69 L 12 23.31 L 15.31 20 H 20 V 15.31 L 23.31 12 L 20 8.69 Z M 12 18 C 8.69 18 6 15.31 6 12 C 6 8.69 8.69 6 12 6 C 15.31 6 18 8.69 18 12 S 15.31 18 12 18 Z M 17.0246 12.0826 C 17.0246 12.6768 16.1778 13.1257 15.947 13.6835 C 15.7244 14.2215 16.0145 15.1398 15.5771 15.5771 S 14.2215 15.7244 13.6835 15.947 C 13.1257 16.1778 12.6768 17.0246 12.0825 17.0246 C 11.4883 17.0246 11.0394 16.1778 10.4816 15.947 C 9.9436 15.7244 9.0254 16.0145 8.588 15.5771 S 8.4407 14.2215 8.2181 13.6835 C 7.9873 13.1257 7.1405 12.6768 7.1405 12.0825 C 7.1405 11.4883 7.9873 11.0394 8.2181 10.4816 C 8.4407 9.9436 8.1506 9.0254 8.588 8.588 S 9.9436 8.4407 10.4817 8.2181 C 11.0394 7.9873 11.4883 7.1405 12.0826 7.1405 C 12.6768 7.1405 13.1257 7.9873 13.6835 8.2181 C 14.2215 8.4407 15.1398 8.1506 15.5771 8.588 S 15.7244 9.9436 15.947 10.4817 C 16.1778 11.0394 17.0246 11.4883 17.0246 12.0826 Z"></path></svg>
