<svg viewBox="0 0 24 24"><path d="M 20 8.69 V 4 H 15.31 L 12 0.69 L 8.69 4 H 4 V 8.69 L 0.69 12 L 4 15.31 V 20 H 8.69 L 12 23.31 L 15.31 20 H 20 V 15.31 L 23.31 12 L 20 8.69 Z M 12 18 C 8.69 18 6 15.31 6 12 C 6 8.69 8.69 6 12 6 C 15.31 6 18 8.69 18 12 S 15.31 18 12 18 Z M 12 9.5 c -1.38 0 -2.5 1.12 -2.5 2.5 s 1.12 2.5 2.5 2.5 s 2.5 -1.12 2.5 -2.5 s -1.12 -2.5 -2.5 -2.5 z M 7 12.5 h 1 c 0.275 0 0.5 -0.225 0.5 -0.5 s -0.225 -0.5 -0.5 -0.5 H 7 c -0.275 0 -0.5 0.225 -0.5 0.5 s 0.225 0.5 0.5 0.5 z m 9 0 h 1 c 0.275 0 0.5 -0.225 0.5 -0.5 s -0.225 -0.5 -0.5 -0.5 h -1 c -0.275 0 -0.5 0.225 -0.5 0.5 s 0.225 0.5 0.5 0.5 z M 11.5 7 v 1 c 0 0.275 0.225 0.5 0.5 0.5 s 0.5 -0.225 0.5 -0.5 V 7 c 0 -0.275 -0.225 -0.5 -0.5 -0.5 s -0.5 0.225 -0.5 0.5 z m 0 9 v 1 c 0 0.275 0.225 0.5 0.5 0.5 s 0.5 -0.225 0.5 -0.5 v -1 c 0 -0.275 -0.225 -0.5 -0.5 -0.5 s -0.5 0.225 -0.5 0.5 z M 8.995 8.29 c -0.195 -0.195 -0.515 -0.195 -0.705 0 c -0.195 0.195 -0.195 0.515 0 0.705 l 0.53 0.53 c 0.195 0.195 0.515 0.195 0.705 0 s 0.195 -0.515 0 -0.705 L 8.995 8.29 z m 6.185 6.185 c -0.195 -0.195 -0.515 -0.195 -0.705 0 c -0.195 0.195 -0.195 0.515 0 0.705 l 0.53 0.53 c 0.195 0.195 0.515 0.195 0.705 0 c 0.195 -0.195 0.195 -0.515 0 -0.705 l -0.53 -0.53 z m 0.53 -5.48 c 0.195 -0.195 0.195 -0.515 0 -0.705 c -0.195 -0.195 -0.515 -0.195 -0.705 0 l -0.53 0.53 c -0.195 0.195 -0.195 0.515 0 0.705 s 0.515 0.195 0.705 0 l 0.53 -0.53 z M 9.525 15.18 c 0.195 -0.195 0.195 -0.515 0 -0.705 c -0.195 -0.195 -0.515 -0.195 -0.705 0 l -0.53 0.53 c -0.195 0.195 -0.195 0.515 0 0.705 s 0.515 0.195 0.705 0 l 0.53 -0.53 z"></path></svg>
